<svg id="Warstwa_1" data-name="Warstwa 1" xmlns="http://www.w3.org/2000/svg" viewBox="0 0 640 640"><defs><style>.cls-1{fill:#f59332;}.cls-2{fill:none;}.cls-3{fill:#fff;}</style></defs><title>spedn-icon-orange-640</title><g id="orange"><ellipse class="cls-1" cx="320.11" cy="320" rx="277.89" ry="278"/><path class="cls-2" d="M276,238q-10.69,0-21.4,0,25.23,38,50.68,75.79c3.16,4.68,3.48,7.84.19,12.7q-25.67,38-51,76.17,10.82,0,21.61,0,8.74-13,17.36-25.92c10.82-16.2,21.32-32.61,32.49-48.56,4.06-5.81,4-10,0-15.91Q300.76,275.33,276,238Z"/><path class="cls-3" d="M312.23,199.94a7.44,7.44,0,0,0-6.8-3.67l-139.59.06c26.83,40.18,52.19,78.49,78,116.5,3.93,5.8,3.45,9.69-.25,15.12-19.95,29.3-70.82,106.2-77.34,116.33l82,0s42.25,0,52.58.11l4.65,0c4.72,0,6.32-3.16,8.41-6.32,13.77-20.81,27.47-41.65,41.59-62.21,1.93-2.8,3.69-7.77,7.64-7.8a7.22,7.22,0,0,0,.73,2q23,34.9,46.21,69.73c1.67,2.5,3.84,4.58,7.51,4.55,18.75-.14,37.51-.06,57.27-.06C458.89,420.47,339.09,240.72,312.23,199.94Zm13.69,128.33c-11.17,16-21.67,32.36-32.49,48.56q-8.64,12.92-17.36,25.92-10.8,0-21.61,0,25.36-38.18,51-76.17c3.29-4.86,3-8-.19-12.7q-25.49-37.8-50.68-75.79,10.69,0,21.4,0,24.87,37.25,49.95,74.34C329.93,318.24,330,322.46,325.92,328.27Z"/><path class="cls-1" d="M597,123.22V42.69H516.39A340.85,340.85,0,0,1,597,123.22Z"/><path class="cls-1" d="M515.08,597.93H597V516.49A341.49,341.49,0,0,1,515.08,597.93Z"/><path class="cls-1" d="M42,514.71v83.22h83.21A341.36,341.36,0,0,1,42,514.71Z"/><path class="cls-1" d="M123.9,42.69H42V125A341.33,341.33,0,0,1,123.9,42.69Z"/></g></svg>