<svg id="Warstwa_1" data-name="Warstwa 1" xmlns="http://www.w3.org/2000/svg" viewBox="0 0 640 640"><defs><style>.cls-1{fill:#8e4d8a;}.cls-2{fill:none;}.cls-3{fill:#fff;}.cls-4{fill:#5e5186;}</style></defs><title>spedn-icon-cashwave-640</title><g id="cashwave"><ellipse class="cls-1" cx="324.57" cy="320.12" rx="277.43" ry="277.88"/><path class="cls-2" d="M280.53,238.18q-10.69,0-21.37,0,25.18,37.95,50.6,75.76c3.15,4.68,3.46,7.83.18,12.69q-25.62,38-50.9,76.14,10.79,0,21.57,0c5.82-8.68,11.58-17.29,17.33-25.91,10.8-16.18,21.29-32.58,32.43-48.53,4.06-5.8,4-10,0-15.9Q305.25,275.47,280.53,238.18Z"/><path class="cls-3" d="M316.71,200.12a7.42,7.42,0,0,0-6.79-3.67l-139.35.06C197.35,236.67,222.67,275,248.44,313c3.93,5.79,3.45,9.68-.24,15.11C228.28,357.36,177.49,434.23,171,444.34l81.83,0s42.18.05,52.49.12c.63,0,3.69,0,4.64,0,4.71,0,6.31-3.16,8.4-6.32,13.74-20.79,27.42-41.63,41.52-62.18,1.92-2.8,3.68-7.77,7.63-7.8a6.83,6.83,0,0,0,.72,2q23,34.91,46.14,69.7c1.66,2.5,3.83,4.57,7.49,4.55,18.72-.14,37.45-.07,57.18-.07C463.12,420.55,343.53,240.88,316.71,200.12Zm13.66,128.27c-11.14,15.95-21.63,32.35-32.43,48.53-5.75,8.62-11.51,17.23-17.33,25.91q-10.78,0-21.57,0,25.32-38.16,50.9-76.14c3.28-4.86,3-8-.18-12.69q-25.45-37.79-50.6-75.76,10.68,0,21.37,0,24.81,37.23,49.86,74.31C334.38,318.37,334.43,322.59,330.37,328.39Z"/><path class="cls-4" d="M602,124.76V42H519.22A340.72,340.72,0,0,1,602,124.76Z"/><path class="cls-4" d="M520.53,597H602V515.2A340.79,340.79,0,0,1,520.53,597Z"/><path class="cls-4" d="M130,42H46v84.51A340.86,340.86,0,0,1,130,42Z"/><path class="cls-4" d="M46,513.42V597h82.69A341,341,0,0,1,46,513.42Z"/></g></svg>