<svg id="Warstwa_1" data-name="Warstwa 1" xmlns="http://www.w3.org/2000/svg" viewBox="0 0 640 640"><defs><style>.cls-1{fill:#4cc947;}.cls-2{fill:none;}.cls-3{fill:#fff;}</style></defs><title>spedn-icon-green-640</title><g id="green"><ellipse class="cls-1" cx="320.57" cy="319.69" rx="277.43" ry="277.44"/><path class="cls-2" d="M276.53,237.88q-10.69,0-21.37,0,25.18,37.89,50.6,75.64c3.15,4.67,3.46,7.82.18,12.67q-25.62,37.89-50.9,76,10.79,0,21.57,0,8.73-13,17.33-25.87c10.8-16.15,21.29-32.53,32.43-48.45,4.06-5.8,4-10,0-15.88Q301.25,275.11,276.53,237.88Z"/><path class="cls-3" d="M312.71,199.87a7.41,7.41,0,0,0-6.79-3.66l-139.35.06c26.78,40.1,52.1,78.33,77.87,116.27,3.93,5.78,3.45,9.67-.24,15.08-19.92,29.25-70.71,106-77.21,116.1l81.83,0s42.18.05,52.49.11c.63,0,3.69,0,4.64,0,4.71,0,6.31-3.16,8.4-6.32,13.74-20.76,27.42-41.56,41.52-62.08,1.92-2.8,3.68-7.75,7.63-7.78a6.86,6.86,0,0,0,.72,2q23,34.85,46.14,69.6c1.66,2.49,3.83,4.56,7.49,4.53,18.72-.13,37.45-.06,57.18-.06C459.12,420,339.53,240.57,312.71,199.87ZM326.37,328c-11.14,15.92-21.63,32.3-32.43,48.45q-8.62,12.9-17.33,25.87-10.78,0-21.57,0,25.32-38.1,50.9-76c3.28-4.85,3-8-.18-12.67q-25.45-37.73-50.6-75.64,10.68,0,21.37,0,24.81,37.17,49.86,74.19C330.38,317.94,330.43,322.15,326.37,328Z"/><path class="cls-2" d="M515.22,597.07A340.77,340.77,0,0,0,598,514.47V124.63A340.36,340.36,0,0,0,515.22,42H126a340.68,340.68,0,0,0-84,84.38V512.69a340.64,340.64,0,0,0,84,84.38H42V598H598v-.93Z"/><path class="cls-1" d="M598,124.63V42H515.22A340.36,340.36,0,0,1,598,124.63Z"/><path class="cls-1" d="M515.22,597.07H598v-82.6A340.77,340.77,0,0,1,515.22,597.07Z"/><path class="cls-1" d="M42,512.69v84.38h84A340.64,340.64,0,0,1,42,512.69Z"/><path class="cls-1" d="M126,42H42v84.38A340.68,340.68,0,0,1,126,42Z"/></g></svg>