<svg id="Warstwa_1" data-name="Warstwa 1" xmlns="http://www.w3.org/2000/svg" viewBox="0 0 2123 640"><defs><style>.cls-1,.cls-5{fill:#5e5186;}.cls-2{fill:#8e4d8a;}.cls-3{fill:none;}.cls-4{fill:#fff;}.cls-5{font-size:354.84px;font-family:Ubuntu-BoldItalic, Ubuntu;font-weight:700;font-style:italic;}</style></defs><title>spedn-logo-cashwave-640</title><g id="cashwave"><path class="cls-1" d="M687,597.93C774.43,536.57,831.56,435,831.56,320A339,339,0,0,0,687,42H942V597.93Z"/><path class="cls-1" d="M152.73,320c0,115,57.14,216.59,144.58,278H42V42H297.32C209.87,103.37,152.73,205,152.73,320Z"/><ellipse class="cls-2" cx="492.12" cy="320.12" rx="277.77" ry="277.88"/><path class="cls-3" d="M448,238.18q-10.69,0-21.4,0,25.23,37.95,50.66,75.76c3.16,4.68,3.48,7.83.19,12.69q-25.65,38-51,76.14,10.8,0,21.6,0c5.82-8.68,11.59-17.29,17.34-25.91,10.82-16.18,21.32-32.58,32.48-48.53,4.06-5.8,4-10,0-15.9Q472.79,275.47,448,238.18Z"/><path class="cls-4" d="M484.25,200.12a7.44,7.44,0,0,0-6.8-3.67l-139.53.06c26.82,40.16,52.17,78.46,78,116.45,3.94,5.79,3.45,9.68-.24,15.11-19.95,29.29-70.79,106.16-77.3,116.27l81.93,0s42.23.05,52.55.12c.63,0,3.69,0,4.65,0,4.72,0,6.32-3.16,8.41-6.32,13.76-20.79,27.45-41.63,41.57-62.18,1.92-2.8,3.68-7.77,7.63-7.8a7.11,7.11,0,0,0,.73,2q23,34.91,46.19,69.7c1.67,2.5,3.84,4.57,7.51,4.55,18.74-.14,37.49-.07,57.24-.07C630.84,420.55,511.1,240.88,484.25,200.12Zm13.68,128.27c-11.16,15.95-21.66,32.35-32.48,48.53-5.75,8.62-11.52,17.23-17.34,25.91q-10.8,0-21.6,0,25.35-38.16,51-76.14c3.29-4.86,3-8-.19-12.69q-25.47-37.79-50.66-75.76,10.69,0,21.4,0,24.84,37.23,49.92,74.31C501.94,318.37,502,322.59,497.93,328.39Z"/></g><text class="cls-5" transform="translate(1015.9 444.83)">Spedn</text></svg>