<svg id="Warstwa_1" data-name="Warstwa 1" xmlns="http://www.w3.org/2000/svg" viewBox="0 0 984 640"><defs><style>.cls-1{fill:#5e5186;}.cls-2{fill:#8e4d8a;}.cls-3{fill:none;}.cls-4{fill:#fff;}</style></defs><title>spedn-logomark-cashwave-640</title><g id="cashwave"><path class="cls-1" d="M687,597.93C774.44,536.57,831.57,435,831.57,320A339,339,0,0,0,687,42H942V597.93Z"/><path class="cls-1" d="M152.73,320c0,115,57.14,216.59,144.58,278H42V42H297.32C209.87,103.37,152.73,205,152.73,320Z"/><ellipse class="cls-2" cx="492.13" cy="320.12" rx="277.77" ry="277.88"/><path class="cls-3" d="M448,238.18q-10.69,0-21.39,0,25.22,37.95,50.66,75.76c3.16,4.68,3.47,7.83.19,12.69q-25.65,38-51,76.14,10.8,0,21.6,0c5.82-8.68,11.59-17.29,17.35-25.91,10.81-16.18,21.31-32.58,32.47-48.53,4.06-5.8,4-10,0-15.9Q472.78,275.47,448,238.18Z"/><path class="cls-4" d="M484.25,200.12a7.42,7.42,0,0,0-6.79-3.67l-139.53.06C364.74,236.67,390.1,275,415.9,313c3.93,5.79,3.45,9.68-.25,15.11-19.94,29.29-70.79,106.16-77.3,116.27l81.94,0s42.22.05,52.54.12c.64,0,3.7,0,4.66,0,4.71,0,6.31-3.16,8.41-6.32,13.75-20.79,27.45-41.63,41.56-62.18,1.93-2.8,3.69-7.77,7.64-7.8a7.11,7.11,0,0,0,.73,2q23,34.91,46.19,69.7c1.67,2.5,3.84,4.57,7.5,4.55,18.75-.14,37.49-.07,57.25-.07C630.84,420.55,511.1,240.88,484.25,200.12Zm13.68,128.27c-11.16,15.95-21.66,32.35-32.47,48.53-5.76,8.62-11.53,17.23-17.35,25.91q-10.8,0-21.6,0,25.35-38.16,51-76.14c3.28-4.86,3-8-.19-12.69q-25.49-37.79-50.66-75.76,10.69,0,21.39,0,24.86,37.23,49.93,74.31C501.94,318.37,502,322.59,497.93,328.39Z"/></g></svg>